<?xml version="1.0" encoding="UTF-8"?>
<!DOCTYPE svg PUBLIC "-//W3C//DTD SVG 1.1//EN" "http://www.w3.org/Graphics/SVG/1.1/DTD/svg11.dtd">
<!-- Creator: CorelDRAW 2021 (64-Bit) -->
<svg xmlns="http://www.w3.org/2000/svg" xml:space="preserve" width="11.6929in" height="8.26772in" version="1.1" style="shape-rendering:geometricPrecision; text-rendering:geometricPrecision; image-rendering:optimizeQuality; fill-rule:evenodd; clip-rule:evenodd"
viewBox="0 0 11692.91 8267.72"
 xmlns:xlink="http://www.w3.org/1999/xlink"
 xmlns:xodm="http://www.corel.com/coreldraw/odm/2003">
 <defs>
  <style type="text/css">
   <![CDATA[
    .fil0 {fill:#848688;fill-opacity:0.200000}
    .fil1 {fill:#F58634;fill-opacity:0.200000}
   ]]>
  </style>
 </defs>
 <g id="Layer_x0020_1">
  <metadata id="CorelCorpID_0Corel-Layer"/>
  <g id="_2711279466720">
   <path class="fil0" d="M5002.22 4057.14l576.02 580.45 1376.21 1386.86c88.12,88.8 232.28,88.8 320.39,0l1952.22 -1967.31c88.12,-88.8 88.12,-234.06 0,-322.87l-1952.22 -1967.31c-88.11,-88.8 -232.27,-88.8 -320.39,0l-245.88 247.76 -707.14 -712.61 853.3 -859.89c142.96,-144.07 376.86,-144.07 519.83,0l3167.08 3191.56c142.97,144.07 142.97,379.78 0,523.85l-3167.08 3191.56c-142.97,144.07 -376.87,144.07 -519.83,0l-3167.09 -3191.56c-142.96,-144.07 -142.96,-379.78 0,-523.85l447.24 -450.7 865.73 872.42c0.53,0.55 1.07,1.09 1.61,1.64z"/>
   <path class="fil1" d="M6683.6 4212.87l-576.02 -580.45 -1376.21 -1386.86c-88.12,-88.8 -232.28,-88.8 -320.39,0l-1952.22 1967.31c-88.12,88.8 -88.12,234.06 0,322.87l1952.22 1967.31c88.11,88.8 232.27,88.8 320.39,0l245.88 -247.76 707.14 712.61 -853.3 859.89c-142.96,144.07 -376.86,144.07 -519.83,0l-3167.09 -3191.56c-142.97,-144.07 -142.97,-379.77 0,-523.84l3167.09 -3191.56c142.96,-144.07 376.86,-144.07 519.83,0l3167.09 3191.56c142.97,144.07 142.97,379.77 0,523.84l-447.24 450.7 -865.73 -872.41c-0.53,-0.55 -1.07,-1.09 -1.61,-1.64z"/>
  </g>
 </g>
</svg>
