<?xml version="1.0" encoding="UTF-8"?>
<!DOCTYPE svg PUBLIC "-//W3C//DTD SVG 1.1//EN" "http://www.w3.org/Graphics/SVG/1.1/DTD/svg11.dtd">
<!-- Creator: CorelDRAW 2021 (64-Bit) -->
<svg xmlns="http://www.w3.org/2000/svg" xml:space="preserve" width="476.893in" height="373.202in" version="1.1" style="shape-rendering:geometricPrecision; text-rendering:geometricPrecision; image-rendering:optimizeQuality; fill-rule:evenodd; clip-rule:evenodd"
viewBox="0 0 476893 373202"
 xmlns:xlink="http://www.w3.org/1999/xlink"
 xmlns:xodm="http://www.corel.com/coreldraw/odm/2003">
 <defs>
  <style type="text/css">
   <![CDATA[
    .fil0 {fill:#848688;fill-opacity:0.101961}
    .fil1 {fill:#F58634;fill-opacity:0.101961}
   ]]>
  </style>
 </defs>
 <g id="Layer_x0020_1">
  <metadata id="CorelCorpID_0Corel-Layer"/>
  <g id="_2385443727520">
   <path class="fil0" d="M197375.27 182801.34l28138.29 28354.93 67227.83 67748.07c4304.75,4338.01 11347.12,4338.01 15651.09,0l95366.12 -96103c4304.75,-4338.01 4304.75,-11434.01 0,-15772.02l-95366.12 -96103c-4303.97,-4338.01 -11346.34,-4338.01 -15651.09,0l-12011.06 12103.09 -34543.98 -34810.9 41683.76 -42005.85c6983.92,-7037.88 18409.74,-7037.88 25393.67,0l154712.3 155907.74c6983.92,7037.88 6983.92,18551.99 0,25589.88l-154712.3 155907.73c-6983.92,7037.89 -18409.74,7037.89 -25393.67,0l-154712.3 -155907.73c-6983.92,-7037.89 -6983.92,-18552 0,-25589.88l21847.93 -22016.75 42290.82 42617.6c25.72,26.7 52.21,53.4 78.71,80.1z"/>
   <path class="fil1" d="M279510.75 190408.65l-28138.29 -28354.93 -67227.83 -67748.07c-4304.75,-4338.02 -11347.11,-4338.02 -15651.09,0l-95366.12 96103c-4304.75,4338.01 -4304.75,11434.01 0,15772.02l95366.12 96103c4303.97,4338.02 11346.34,4338.02 15651.09,0l12011.07 -12103.09 34543.98 34810.91 -41683.76 42005.85c-6983.92,7037.88 -18409.74,7037.88 -25393.67,0l-154712.3 -155907.74c-6983.92,-7037.89 -6983.92,-18551.99 0,-25589.88l154712.3 -155907.74c6983.92,-7037.88 18409.74,-7037.88 25393.67,0l154712.3 155907.74c6983.92,7037.89 6983.92,18551.99 0,25589.88l-21847.93 22016.75 -42290.82 -42617.6c-25.72,-26.7 -52.21,-53.4 -78.71,-80.1z"/>
  </g>
 </g>
</svg>
